<svg xmlns="http://www.w3.org/2000/svg" width="24" height="24" viewBox="0 0 24 24"><defs><style>.a{fill-rule:evenodd;}.b{fill:none;}</style></defs><g transform="translate(-289 -842)"><path class="a" d="M18.831,17.5H12.548a2.513,2.513,0,0,1-5.026,0H1.24A1.206,1.206,0,0,1,.11,16.625,1.33,1.33,0,0,1,.487,15.25a5.024,5.024,0,0,0,2.01-4V7.5a7.539,7.539,0,0,1,15.077,0v3.75a5.024,5.024,0,0,0,2.01,4,1.18,1.18,0,0,1,.377,1.375A1.206,1.206,0,0,1,18.831,17.5Z" transform="translate(290.938 844)"/><rect class="b" width="24" height="24" transform="translate(289 842)"/></g></svg>